<svg width="32" height="32" viewBox="0 0 32 32" fill="none" xmlns="http://www.w3.org/2000/svg">
    <rect width="3.55556" height="3.55556" transform="translate(0 3.55469)" fill="#1967D2"/>
    <rect width="3.55556" height="3.55556" transform="translate(3.55566 3.55469)" fill="#1967D2"/>
    <rect width="3.55556" height="3.55556" transform="translate(7.11133 3.55469)" fill="#1967D2"/>
    <rect width="3.55556" height="3.55556" transform="translate(10.6665 3.55469)" fill="#1967D2"/>
    <rect width="3.55556" height="3.55556" transform="translate(14.2222 3.55469)" fill="#1967D2"/>
    <rect width="3.55556" height="3.55556" transform="translate(17.7778 3.55469)" fill="#1967D2"/>
    <rect width="3.55556" height="3.55556" transform="translate(21.3335 3.55469)" fill="#1967D2"/>
    <rect width="3.55556" height="3.55556" transform="translate(24.8887 3.55469)" fill="#1967D2"/>
    <rect width="3.55556" height="3.55556" transform="translate(28.4443 3.55469)" fill="#1967D2"/>
    <rect width="3.55556" height="3.55556" transform="translate(0 7.10938)" fill="#1967D2"/>
    <rect width="3.55556" height="3.55556" transform="translate(3.55566 7.10938)" fill="white"/>
    <rect width="3.55556" height="3.55556" transform="translate(7.11133 7.10938)" fill="white"/>
    <rect width="3.55556" height="3.55556" transform="translate(10.6665 7.10938)" fill="white"/>
    <rect width="3.55556" height="3.55556" transform="translate(14.2222 7.10938)" fill="#1967D2"/>
    <rect width="3.55556" height="3.55556" transform="translate(17.7778 7.10938)" fill="white"/>
    <rect width="3.55556" height="3.55556" transform="translate(21.3335 7.10938)" fill="white"/>
    <rect width="3.55556" height="3.55556" transform="translate(24.8887 7.10938)" fill="white"/>
    <rect width="3.55556" height="3.55556" transform="translate(28.4443 7.10938)" fill="#1967D2"/>
    <rect width="3.55556" height="3.55556" transform="translate(0 10.6641)" fill="#1967D2"/>
    <rect width="3.55556" height="3.55556" transform="translate(3.55566 10.6641)" fill="#1967D2"/>
    <rect width="3.55556" height="3.55556" transform="translate(7.11133 10.6641)" fill="white"/>
    <rect width="3.55556" height="3.55556" transform="translate(10.6665 10.6641)" fill="#1967D2"/>
    <rect width="3.55556" height="3.55556" transform="translate(14.2222 10.6641)" fill="#1967D2"/>
    <rect width="3.55556" height="3.55556" transform="translate(17.7778 10.6641)" fill="white"/>
    <rect width="3.55556" height="3.55556" transform="translate(21.3335 10.6641)" fill="#1967D2"/>
    <rect width="3.55556" height="3.55556" transform="translate(24.8887 10.6641)" fill="#1967D2"/>
    <rect width="3.55556" height="3.55556" transform="translate(28.4443 10.6641)" fill="#1967D2"/>
    <rect width="3.55556" height="3.55556" transform="translate(0 14.2227)" fill="#1967D2"/>
    <rect width="3.55556" height="3.55556" transform="translate(3.55566 14.2227)" fill="#1967D2"/>
    <rect width="3.55556" height="3.55556" transform="translate(7.11133 14.2227)" fill="white"/>
    <rect width="3.55556" height="3.55556" transform="translate(10.6665 14.2227)" fill="#1967D2"/>
    <rect width="3.55556" height="3.55556" transform="translate(14.2222 14.2227)" fill="#1967D2"/>
    <rect width="3.55556" height="3.55556" transform="translate(17.7778 14.2227)" fill="white"/>
    <rect width="3.55556" height="3.55556" transform="translate(21.3335 14.2227)" fill="white"/>
    <rect width="3.55556" height="3.55556" transform="translate(24.8887 14.2227)" fill="white"/>
    <rect width="3.55556" height="3.55556" transform="translate(28.4443 14.2227)" fill="#1967D2"/>
    <rect width="3.55556" height="3.55556" transform="translate(0 17.7773)" fill="#1967D2"/>
    <rect width="3.55556" height="3.55556" transform="translate(3.55566 17.7773)" fill="#1967D2"/>
    <rect width="3.55556" height="3.55556" transform="translate(7.11133 17.7773)" fill="white"/>
    <rect width="3.55556" height="3.55556" transform="translate(10.6665 17.7773)" fill="#1967D2"/>
    <rect width="3.55556" height="3.55556" transform="translate(14.2222 17.7773)" fill="#1967D2"/>
    <rect width="3.55556" height="3.55556" transform="translate(17.7778 17.7773)" fill="white"/>
    <rect width="3.55556" height="3.55556" transform="translate(21.3335 17.7773)" fill="#1967D2"/>
    <rect width="3.55556" height="3.55556" transform="translate(24.8887 17.7773)" fill="#1967D2"/>
    <rect width="3.55556" height="3.55556" transform="translate(28.4443 17.7773)" fill="#1967D2"/>
    <rect width="3.55556" height="3.55556" transform="translate(0 21.332)" fill="#1967D2"/>
    <rect width="3.55556" height="3.55556" transform="translate(3.55566 21.332)" fill="#1967D2"/>
    <rect width="3.55556" height="3.55556" transform="translate(7.11133 21.332)" fill="white"/>
    <rect width="3.55556" height="3.55556" transform="translate(10.6665 21.332)" fill="#1967D2"/>
    <rect width="3.55556" height="3.55556" transform="translate(14.2222 21.332)" fill="#1967D2"/>
    <rect width="3.55556" height="3.55556" transform="translate(17.7778 21.332)" fill="white"/>
    <rect width="3.55556" height="3.55556" transform="translate(21.3335 21.332)" fill="white"/>
    <rect width="3.55556" height="3.55556" transform="translate(24.8887 21.332)" fill="white"/>
    <rect width="3.55556" height="3.55556" transform="translate(28.4443 21.332)" fill="#1967D2"/>
    <rect width="3.55556" height="3.55556" transform="translate(0 24.8867)" fill="#1967D2"/>
    <rect width="3.55556" height="3.55556" transform="translate(3.55566 24.8867)" fill="#1967D2"/>
    <rect width="3.55556" height="3.55556" transform="translate(7.11133 24.8867)" fill="#1967D2"/>
    <rect width="3.55556" height="3.55556" transform="translate(10.6665 24.8867)" fill="#1967D2"/>
    <rect width="3.55556" height="3.55556" transform="translate(14.2222 24.8867)" fill="#1967D2"/>
    <rect width="3.55556" height="3.55556" transform="translate(17.7778 24.8867)" fill="#1967D2"/>
    <rect width="3.55556" height="3.55556" transform="translate(21.3335 24.8867)" fill="#1967D2"/>
    <rect width="3.55556" height="3.55556" transform="translate(24.8887 24.8867)" fill="#1967D2"/>
    <rect width="3.55556" height="3.55556" transform="translate(28.4443 24.8867)" fill="#1967D2"/>
</svg>
